<svg xmlns="http://www.w3.org/2000/svg" viewBox="0 0 340 170" fill="none">
  <defs>
    <linearGradient id="hbwBg" x1="0" x2="1" y1="0" y2="1">
      <stop offset="0" stop-color="#0B2740"/>
      <stop offset="1" stop-color="#06263f"/>
    </linearGradient>
    <filter id="hbwShadow" x="-20%" y="-20%" width="140%" height="160%">
      <feGaussianBlur stdDeviation="8"/>
    </filter>
  </defs>
  <rect x="6" y="14" width="328" height="150" rx="18" fill="#000" opacity="0.55" filter="url(#hbwShadow)"/>
  <rect x="6" y="6"  width="328" height="150" rx="18" fill="url(#hbwBg)" stroke="#19d4f2" stroke-opacity="0.45"/>
  <text x="24" y="34" font-family="-apple-system, system-ui, sans-serif" font-size="10" font-weight="800" letter-spacing="1.4" fill="#19d4f2">HOT BITE WINDOW</text>
  <text x="24" y="66" font-family="-apple-system, system-ui, sans-serif" font-size="26" font-weight="800" fill="#ffffff">6:12 – 7:48 AM</text>
  <text x="24" y="88" font-family="-apple-system, system-ui, sans-serif" font-size="11" fill="#94A3B8">Based on 42 logged catches this season</text>

  <!-- Bar chart at bottom -->
  <g fill="#19d4f2">
    <rect x="24"  y="130" width="16" height="12" rx="3" opacity="0.4"/>
    <rect x="46"  y="118" width="16" height="24" rx="3" opacity="0.55"/>
    <rect x="68"  y="106" width="16" height="36" rx="3" opacity="0.7"/>
    <rect x="90"  y="96"  width="16" height="46" rx="3"/>
    <rect x="112" y="102" width="16" height="40" rx="3"/>
    <rect x="134" y="114" width="16" height="28" rx="3" opacity="0.7"/>
    <rect x="156" y="122" width="16" height="20" rx="3" opacity="0.55"/>
    <rect x="178" y="128" width="16" height="14" rx="3" opacity="0.4"/>
    <rect x="200" y="130" width="16" height="12" rx="3" opacity="0.3"/>
    <rect x="222" y="128" width="16" height="14" rx="3" opacity="0.4"/>
    <rect x="244" y="124" width="16" height="18" rx="3" opacity="0.5"/>
    <rect x="266" y="120" width="16" height="22" rx="3" opacity="0.6"/>
    <rect x="288" y="128" width="16" height="14" rx="3" opacity="0.4"/>
  </g>
</svg>
