<!-- Placeholder QR — swap with a real code once the App Store URL is live. -->
<svg xmlns="http://www.w3.org/2000/svg" viewBox="0 0 160 160">
  <rect width="160" height="160" fill="#ffffff" rx="10"/>
  <g fill="#031b33">
    <!-- position markers -->
    <rect x="12" y="12" width="34" height="34" rx="4"/>
    <rect x="114" y="12" width="34" height="34" rx="4"/>
    <rect x="12" y="114" width="34" height="34" rx="4"/>
    <rect x="20" y="20" width="18" height="18" fill="#ffffff"/>
    <rect x="122" y="20" width="18" height="18" fill="#ffffff"/>
    <rect x="20" y="122" width="18" height="18" fill="#ffffff"/>
    <rect x="26" y="26" width="6" height="6"/>
    <rect x="128" y="26" width="6" height="6"/>
    <rect x="26" y="128" width="6" height="6"/>
    <!-- data blocks -->
    <rect x="56" y="12" width="8" height="8"/>
    <rect x="72" y="20" width="8" height="8"/>
    <rect x="88" y="12" width="8" height="8"/>
    <rect x="56" y="28" width="8" height="8"/>
    <rect x="88" y="28" width="8" height="8"/>
    <rect x="104" y="52" width="8" height="8"/>
    <rect x="12" y="56" width="8" height="8"/>
    <rect x="28" y="64" width="8" height="8"/>
    <rect x="44" y="56" width="8" height="8"/>
    <rect x="60" y="60" width="8" height="8"/>
    <rect x="76" y="52" width="8" height="8"/>
    <rect x="92" y="60" width="8" height="8"/>
    <rect x="120" y="60" width="8" height="8"/>
    <rect x="140" y="60" width="8" height="8"/>
    <rect x="12" y="80" width="8" height="8"/>
    <rect x="36" y="80" width="8" height="8"/>
    <rect x="52" y="80" width="8" height="8"/>
    <rect x="68" y="88" width="8" height="8"/>
    <rect x="84" y="80" width="8" height="8"/>
    <rect x="100" y="88" width="8" height="8"/>
    <rect x="116" y="80" width="8" height="8"/>
    <rect x="132" y="88" width="8" height="8"/>
    <rect x="52" y="100" width="8" height="8"/>
    <rect x="72" y="108" width="8" height="8"/>
    <rect x="88" y="100" width="8" height="8"/>
    <rect x="104" y="108" width="8" height="8"/>
    <rect x="120" y="100" width="8" height="8"/>
    <rect x="140" y="108" width="8" height="8"/>
    <rect x="56" y="120" width="8" height="8"/>
    <rect x="72" y="128" width="8" height="8"/>
    <rect x="88" y="120" width="8" height="8"/>
    <rect x="60" y="140" width="8" height="8"/>
    <rect x="80" y="140" width="8" height="8"/>
    <rect x="100" y="140" width="8" height="8"/>
    <rect x="116" y="132" width="8" height="8"/>
    <rect x="132" y="140" width="8" height="8"/>
    <rect x="140" y="132" width="8" height="8"/>
  </g>
</svg>
