<svg xmlns="http://www.w3.org/2000/svg" viewBox="0 0 1600 900" preserveAspectRatio="xMidYMid slice">
  <defs>
    <linearGradient id="sea" x1="0" x2="0" y1="0" y2="1">
      <stop offset="0" stop-color="#06263f"/>
      <stop offset="0.35" stop-color="#031b33"/>
      <stop offset="1" stop-color="#010a19"/>
    </linearGradient>
    <radialGradient id="shaft" cx="0.5" cy="0" r="0.9">
      <stop offset="0" stop-color="#19d4f2" stop-opacity="0.35"/>
      <stop offset="0.5" stop-color="#19d4f2" stop-opacity="0.06"/>
      <stop offset="1" stop-color="#19d4f2" stop-opacity="0"/>
    </radialGradient>
    <radialGradient id="glow" cx="0.5" cy="0.5" r="0.5">
      <stop offset="0" stop-color="#19d4f2" stop-opacity="0.55"/>
      <stop offset="1" stop-color="#19d4f2" stop-opacity="0"/>
    </radialGradient>
    <filter id="blur"><feGaussianBlur stdDeviation="30"/></filter>
  </defs>
  <rect width="1600" height="900" fill="url(#sea)"/>
  <ellipse cx="800" cy="-50" rx="900" ry="500" fill="url(#shaft)"/>
  <g opacity="0.55">
    <ellipse cx="220" cy="180" rx="140" ry="140" fill="url(#glow)"/>
    <ellipse cx="1380" cy="240" rx="180" ry="180" fill="url(#glow)"/>
    <ellipse cx="1100" cy="650" rx="220" ry="220" fill="url(#glow)"/>
    <ellipse cx="380" cy="720" rx="160" ry="160" fill="url(#glow)"/>
  </g>
  <g stroke="#0f5e85" stroke-width="1" fill="none" opacity="0.35">
    <path d="M0 620 Q 400 560 800 620 T 1600 620"/>
    <path d="M0 680 Q 400 620 800 680 T 1600 680" opacity="0.7"/>
    <path d="M0 740 Q 400 680 800 740 T 1600 740" opacity="0.5"/>
    <path d="M0 800 Q 400 740 800 800 T 1600 800" opacity="0.35"/>
  </g>
  <g fill="#19d4f2" opacity="0.5">
    <circle cx="120"  cy="120" r="1.6"/>
    <circle cx="300"  cy="80"  r="1.2"/>
    <circle cx="520"  cy="220" r="1.8"/>
    <circle cx="700"  cy="120" r="1.4"/>
    <circle cx="900"  cy="70"  r="1.2"/>
    <circle cx="1120" cy="180" r="1.6"/>
    <circle cx="1300" cy="120" r="1.4"/>
    <circle cx="1460" cy="240" r="1.8"/>
    <circle cx="80"   cy="380" r="1.2"/>
    <circle cx="240"  cy="440" r="1.6"/>
    <circle cx="480"  cy="500" r="1.4"/>
    <circle cx="640"  cy="380" r="1.2"/>
    <circle cx="860"  cy="440" r="1.6"/>
    <circle cx="1080" cy="500" r="1.4"/>
    <circle cx="1260" cy="440" r="1.2"/>
    <circle cx="1440" cy="500" r="1.6"/>
  </g>
</svg>
